<svg width="837" height="175" viewBox="0 0 837 175" fill="none" xmlns="http://www.w3.org/2000/svg">
<path opacity="0.99" fill-rule="evenodd" clip-rule="evenodd" d="M65.3313 5.9936e-06C65.4099 -0.00278999 65.999 0.973007 66.6386 2.16689C67.2811 3.36077 68.2405 5.40743 68.7735 6.71595C69.3094 8.02167 70.0023 9.90896 70.3193 10.9099C70.6363 11.9109 71.1525 14.047 71.4695 15.6631C71.7865 17.2792 72.1849 19.6054 72.3532 20.8356C72.5243 22.0659 72.7319 25.463 72.8217 28.3848C72.9143 31.5415 72.8497 35.1147 72.659 37.1921C72.4794 39.1158 72.14 41.8195 71.9015 43.2035C71.6631 44.5875 71.0992 47.2604 70.6447 49.1449C70.193 51.0294 69.2448 54.6139 68.5351 57.1135C67.8281 59.6131 67.0651 62.4762 66.8378 63.4743C66.6134 64.4725 66.1252 66.8659 65.7549 68.7867C65.3874 70.7103 64.9358 74.2948 64.7534 76.7552C64.4869 80.3593 64.4981 82.1934 64.8095 86.1945C65.0199 88.9233 65.2892 91.1573 65.4043 91.1573C65.5193 91.1545 65.6147 90.8721 65.6175 90.5254C65.6175 90.1787 66.0467 88.5738 66.5685 86.9606C67.0903 85.3473 67.9431 83.0182 68.4649 81.788C68.9839 80.5578 69.9602 78.5447 70.6279 77.3144C71.2984 76.0842 72.6814 73.8195 73.7026 72.2817C74.7237 70.7439 76.3032 68.605 77.2093 67.5285C78.1182 66.4521 79.5013 64.8807 80.284 64.0335C81.0667 63.1863 82.7892 61.5731 84.1105 60.4463C85.4319 59.3195 87.3339 57.86 88.3382 57.203C89.3398 56.5487 91.1072 55.4946 92.2658 54.8627C93.4216 54.2308 95.6968 53.2243 97.3155 52.6231C98.9342 52.0248 101.397 51.323 102.786 51.063C104.175 50.803 105.594 50.5317 105.942 50.4618C106.29 50.3919 106.573 50.4283 106.576 50.5429C106.576 50.6576 105.74 52.3883 104.713 54.3874C103.689 56.3865 102.615 58.3689 102.329 58.7911C102.04 59.2133 101.804 59.6215 101.804 59.6998C101.804 59.7781 101.03 61.0027 100.082 62.4258C99.1333 63.849 97.1443 66.4548 95.6631 68.2163C94.179 69.9806 91.6402 72.5529 90.0215 73.9341C88.4028 75.3153 85.5609 77.6388 83.7094 79.0983C81.8578 80.5578 79.145 82.9539 77.6778 84.4246C76.2106 85.8981 74.4965 87.7295 73.8681 88.4984C73.2397 89.2672 72.3392 90.4611 71.8679 91.1545C71.3966 91.8479 70.4119 93.5451 69.6797 94.9291C68.9475 96.3131 67.9992 98.3905 67.5756 99.5425C67.1492 100.697 66.5404 102.833 66.2234 104.296C65.9092 105.758 65.4968 108.587 65.3117 110.587C65.0985 112.893 65.034 116.573 65.1321 120.652C65.2191 124.189 65.351 127.399 65.4267 127.782C65.4996 128.168 65.6511 129.174 65.7605 130.019C65.87 130.863 66.0018 131.934 66.0551 132.395C66.1056 132.857 66.2234 133.55 66.316 133.933C66.4058 134.319 66.5461 135.197 66.6218 135.89C66.7004 136.584 66.8967 137.903 67.0566 138.826C67.2194 139.749 67.4634 140.724 67.6037 140.993C67.8085 141.384 68.2321 141.482 69.7526 141.482C70.7934 141.482 73.2229 141.672 75.153 141.907C77.0803 142.145 79.6051 142.511 80.7637 142.726C81.9195 142.942 84.3827 143.498 86.2342 143.962C88.0858 144.426 90.6106 145.173 91.845 145.623C93.0793 146.076 95.4162 147.063 97.0349 147.818C98.8556 148.668 100.062 149.4 100.191 149.741C100.32 150.071 100.264 150.432 100.051 150.65C99.8571 150.851 99.4784 151.008 99.2091 151C98.9398 150.994 97.6128 150.687 96.2634 150.317C94.9141 149.948 92.6108 149.381 91.1436 149.059C89.6764 148.738 86.7111 148.218 84.551 147.905C82.3908 147.591 78.9178 147.155 76.8362 146.934C74.7518 146.713 70.3978 146.451 67.1576 146.35C63.6481 146.241 58.9407 146.3 55.5153 146.495C52.3508 146.674 48.3756 147.007 46.6784 147.231C44.9811 147.457 42.0775 147.891 40.226 148.198C38.3744 148.506 35.5326 149.076 33.9139 149.467C32.2924 149.856 30.1182 150.39 29.0802 150.653C27.3016 151.1 27.1641 151.1 26.6956 150.653C26.3842 150.354 26.2776 150.013 26.4095 149.744C26.5245 149.507 28.0394 148.634 29.776 147.807C31.5125 146.982 34.2561 145.855 35.8777 145.307C37.4964 144.759 40.0857 143.996 41.6287 143.61C43.1716 143.227 45.1915 142.782 46.1173 142.623C47.0431 142.464 49.4417 142.142 51.4475 141.91C53.4534 141.678 56.0736 141.485 57.2687 141.485C59.2941 141.482 59.4513 141.44 59.5775 140.853C59.6532 140.506 59.9029 139.156 60.1358 137.847C60.3658 136.539 60.8063 133.519 61.112 131.137C61.4206 128.755 61.8218 125.168 62.007 123.169C62.1921 121.169 62.3464 116.827 62.3492 113.522C62.352 110.218 62.1949 106.317 62.0013 104.855C61.8078 103.393 61.2747 100.75 60.8175 98.9833C60.2704 96.8723 59.4204 94.616 58.3403 92.4127C57.4342 90.5674 55.9024 87.9895 54.9346 86.681C53.9667 85.3725 51.8375 82.9819 50.2075 81.3658C48.5748 79.7525 44.7146 76.4225 41.6287 73.9704C38.5428 71.5184 34.3347 67.8696 32.2784 65.8649C30.222 63.8574 27.5092 60.9188 26.2468 59.3335C24.9872 57.7482 23.1665 55.201 22.2014 53.6716C21.2364 52.1422 20.4789 50.8309 20.5182 50.7526C20.5575 50.6771 21.5337 50.8058 22.6924 51.0378C23.8482 51.2727 25.6156 51.7256 26.6199 52.05C27.6214 52.3715 29.5487 53.1236 30.8981 53.7192C32.2475 54.3175 34.2056 55.3269 35.2464 55.9615C36.2872 56.5962 38.2117 57.9495 39.5218 58.9672C40.832 59.985 42.7144 61.5731 43.7047 62.4957C44.6921 63.4184 46.51 65.37 47.7416 66.8295C48.9732 68.289 50.7658 70.6181 51.7252 72.0021C52.6847 73.3861 54.0144 75.4607 54.6821 76.6154C55.3498 77.7674 56.8058 80.5354 57.9139 82.7666C59.022 84.9978 60.0993 87.324 60.3041 87.9392C60.5117 88.5543 60.7894 89.1834 60.9269 89.3372C61.07 89.4993 61.1036 88.9737 61.0054 88.079C60.9129 87.2346 60.6463 84.844 60.4135 82.7666C60.1778 80.6892 59.6729 77.4822 59.2857 75.6368C58.9014 73.7915 58.1972 71.0235 57.7259 69.4857C57.2518 67.9479 55.995 64.1733 54.9346 61.0978C53.8714 58.0222 52.6903 54.3091 52.3088 52.8496C51.9272 51.3901 51.4195 48.8737 51.1838 47.2577C50.9453 45.6416 50.749 42.4346 50.7462 40.1279C50.7434 37.5947 50.9117 34.9358 51.1726 33.4176C51.411 32.0335 51.93 29.8303 52.3256 28.5246C52.7183 27.2189 53.4253 25.203 53.8938 24.051C54.3623 22.8963 56.7918 17.7405 59.2913 12.5875C61.7909 7.43452 64.1419 2.49682 64.5122 1.61329C64.8853 0.729757 65.2528 0.00280197 65.3313 5.9936e-06ZM61.5665 43.6229C61.3421 44.9286 61.0868 46.5642 60.9998 47.2577C60.9157 47.9483 60.7642 51.2839 60.6688 54.667C60.5566 58.5758 60.6127 62.2469 60.8231 64.7325C61.0082 66.8854 61.2832 69.276 61.4403 70.0449C61.5946 70.8138 61.7685 71.3786 61.8274 71.3031C61.8863 71.2276 62.0603 68.5211 62.2174 65.2917C62.3745 62.0624 62.5736 56.5263 62.6578 52.9894C62.7448 49.4525 62.885 44.5148 62.9748 42.0152C63.0618 39.5156 63.073 37.4717 62.9973 37.4717C62.9215 37.4717 62.6606 38.3217 62.4193 39.359C62.1753 40.3963 61.7937 42.3144 61.5665 43.6229ZM75.787 9.9509C76.4406 10.0432 78.1744 10.415 79.6416 10.7785C81.1088 11.1392 83.5691 11.8885 85.1121 12.4449C86.655 12.9985 89.6203 14.2931 91.7047 15.3192C93.7863 16.3481 97.0686 18.241 98.9987 19.5271C100.926 20.8161 103.263 22.5104 104.189 23.2933C105.114 24.0762 106.663 25.4798 107.628 26.4108C108.596 27.3419 110.571 29.4892 112.018 31.1808C113.466 32.8723 115.489 35.5145 116.515 37.0523C117.539 38.5901 119.116 41.2966 120.019 43.0637C120.92 44.8307 122.132 47.5373 122.707 49.075C123.285 50.6128 124.121 53.1292 124.564 54.667C125.01 56.2048 125.619 58.7212 125.916 60.259C126.216 61.7967 126.612 64.8164 126.792 66.9693C126.985 69.2536 127.052 72.7458 126.957 75.3572C126.865 77.8177 126.713 80.2698 126.618 80.8094C126.522 81.349 126.264 82.7946 126.04 84.0248C125.815 85.255 125.493 86.8264 125.319 87.5198C125.148 88.2132 124.592 90.0361 124.087 91.5739C123.582 93.1117 122.6 95.6924 121.907 97.3057C121.214 98.919 120.238 100.996 119.739 101.919C119.242 102.842 118.143 104.665 117.295 105.973C116.451 107.282 114.936 109.418 113.932 110.726C112.925 112.035 110.764 114.467 109.126 116.134C107.491 117.8 105.016 120.073 103.628 121.186C102.239 122.302 99.7786 124.083 98.1571 125.148C96.5384 126.211 93.8228 127.785 92.1255 128.64C90.4282 129.496 87.7126 130.715 86.0939 131.347C84.4752 131.979 82.0121 132.829 80.6235 133.231C79.2348 133.634 76.9007 134.213 75.4335 134.512C73.9663 134.814 72.5159 135.057 72.2073 135.057C71.736 135.054 71.5677 134.702 71.1637 132.885C70.8972 131.693 70.4315 129.269 70.1285 127.502C69.8283 125.735 69.4384 122.4 69.2673 120.093C69.0933 117.786 69.0316 114.892 69.1242 113.662C69.2168 112.432 69.4188 110.419 69.5759 109.189C69.7302 107.958 70.0275 106.197 70.2379 105.274C70.4483 104.352 70.9 102.777 71.2423 101.779C71.5845 100.781 72.2662 99.1427 72.7544 98.1445C73.2453 97.1463 74.129 95.5722 74.7181 94.6495C75.3073 93.7268 76.5781 91.9654 77.5431 90.7351C78.5054 89.5049 80.2279 87.6176 81.3669 86.5412C82.5059 85.4647 83.8132 84.268 84.2733 83.885C84.7361 83.4991 85.6787 82.7498 86.3745 82.2158C87.0702 81.6818 89.1518 80.0517 91.0034 78.595C92.8549 77.1383 95.1918 75.1196 96.1989 74.113C97.2032 73.1065 98.735 71.4009 99.599 70.3245C100.46 69.248 101.927 67.2349 102.856 65.8509C103.785 64.4669 105.465 61.6989 106.587 59.6998C107.712 57.7006 109.446 54.3678 110.439 52.2904C111.432 50.213 112.484 47.9818 113.306 46.1393L109.589 46.17C107.544 46.1868 104.674 46.3797 103.207 46.595C101.74 46.8103 99.4055 47.3108 98.0168 47.7078C96.6281 48.102 94.165 49.0135 92.5463 49.7321C90.9276 50.4507 88.4645 51.7843 87.0758 52.6958C85.6872 53.6073 83.6673 55.064 82.5872 55.9364C81.5071 56.8059 79.3161 58.8889 77.7171 60.5665C76.118 62.2413 74.2272 64.4334 73.5174 65.4315C72.8077 66.4297 72.1456 67.3104 72.0474 67.3887C71.9492 67.467 71.3152 68.4456 70.6363 69.564C69.9574 70.6852 69.3374 71.5939 69.2617 71.5855C69.1859 71.5771 69.2617 70.9116 69.4356 70.1092C69.6067 69.304 70.0275 67.7019 70.367 66.5499C70.7064 65.3952 71.5985 62.5656 72.3476 60.259C73.0994 57.9523 74.1739 54.2392 74.7378 52.0108C75.2988 49.7824 75.9441 46.9501 76.1657 45.7199C76.3901 44.4896 76.766 42.0348 77.0017 40.2677C77.2402 38.5006 77.5039 34.7876 77.588 32.0196C77.7087 28.2031 77.6301 26.0418 77.2682 23.0724C77.0045 20.9195 76.5556 18.0257 76.2695 16.6417C75.9834 15.2577 75.4896 13.3061 75.1754 12.3079C74.8584 11.3069 74.6003 10.3312 74.6003 10.1382C74.6003 9.8838 74.9313 9.83067 75.787 9.9509ZM55.1646 9.5343C55.779 9.51193 55.7622 9.58183 54.6484 11.9584C54.02 13.3033 52.7099 16.2922 51.7393 18.5989C50.7686 20.9055 49.5847 23.9252 49.1106 25.3092C48.6365 26.6932 47.9324 29.0838 47.5452 30.6216C47.1581 32.1594 46.7092 34.329 46.5493 35.4446C46.3894 36.5602 46.2491 39.1381 46.2379 41.1764C46.2267 43.2147 46.3585 45.8233 46.5297 46.9781C46.7008 48.13 47.0936 50.0816 47.4021 51.3118C47.7135 52.5421 48.1652 54.1777 48.4093 54.9466C48.6533 55.7155 49.6633 58.4835 50.6508 61.0978C51.6383 63.712 52.4126 65.8761 52.3677 65.9068C52.3256 65.9376 51.1473 64.6151 49.7502 62.9711C48.3532 61.3242 46.0079 58.9113 44.535 57.6028C43.0622 56.2943 40.86 54.5132 39.6397 53.6409C38.4193 52.7685 36.1582 51.4181 34.6152 50.6352C33.0723 49.8551 30.7999 48.9101 29.5655 48.5354C28.3312 48.1608 26.373 47.6491 25.2172 47.3947C24.0305 47.1346 21.0035 46.8522 18.2739 46.746C15.1066 46.623 13.4346 46.6565 13.4402 46.8383C13.4458 46.992 14.1612 48.4376 15.0337 50.0536C15.9033 51.6697 17.3088 54.0575 18.1505 55.366C18.9949 56.6745 20.3639 58.6541 21.1887 59.7697C22.0163 60.8853 22.914 62.0288 23.1833 62.3112C23.4526 62.5964 24.1147 63.3737 24.6561 64.0419C25.1976 64.7102 27.0267 66.6338 28.7239 68.3198C30.4212 70.0057 33.336 72.592 35.1987 74.0711C37.0643 75.5474 39.9034 77.7842 41.5109 79.0424C43.1183 80.2977 45.6572 82.5625 47.1525 84.0751C48.6477 85.5849 50.3618 87.4499 50.9622 88.2188C51.5597 88.9877 52.6202 90.559 53.3187 91.7137C54.0144 92.8657 54.9711 94.6914 55.4424 95.7679C55.9137 96.8444 56.4916 98.2899 56.7244 98.9833C56.9545 99.6767 57.3388 101.184 57.5773 102.338C57.8157 103.49 58.1439 105.758 58.3067 107.371C58.4722 108.984 58.604 111.565 58.6012 113.103C58.5984 114.641 58.4722 117.031 58.3235 118.415C58.172 119.799 57.8466 122.442 57.6025 124.287C57.3556 126.132 57.047 128.02 56.9124 128.481C56.7777 128.942 56.601 129.759 56.5168 130.298C56.4355 130.838 56.2924 131.59 56.1998 131.976C56.1072 132.359 55.9838 132.926 55.9221 133.234C55.8632 133.542 55.765 134.045 55.7033 134.352C55.6023 134.853 55.4031 134.903 53.7984 134.825C52.8137 134.78 50.3057 134.296 48.2213 133.754C46.1369 133.212 43.0454 132.227 41.3481 131.57C39.6509 130.911 36.8736 129.675 35.1763 128.822C33.4791 127.969 31.0187 126.599 29.7058 125.777C28.3929 124.955 25.9943 123.264 24.3756 122.019C22.7541 120.775 20.0413 118.385 18.3412 116.71C16.644 115.032 14.0742 112.088 12.6323 110.167C11.1903 108.244 9.49306 105.791 8.86465 104.715C8.23344 103.639 6.86722 100.996 5.82643 98.8435C4.78844 96.6906 3.43344 93.2935 2.81906 91.2943C2.20468 89.2952 1.45004 86.3371 1.14144 84.7238C0.830047 83.1105 0.423266 80.3397 0.232501 78.5726C0.0080702 76.4924 -0.0564529 73.4812 0.0501515 70.0449C0.156756 66.6422 0.426072 63.5275 0.799187 61.3773C1.12181 59.532 1.70813 56.8255 2.10369 55.366C2.49925 53.9037 3.33806 51.3258 3.96646 49.6342C4.59487 47.9427 5.85168 45.1103 6.76342 43.3433C7.67237 41.5734 9.34437 38.7439 10.4749 37.0523C11.6055 35.3608 13.7264 32.5927 15.188 30.9012C16.6468 29.2096 18.5853 27.1238 19.497 26.2654C20.406 25.4071 22.2211 23.8413 23.534 22.7872C24.8469 21.7332 27.1193 20.0863 28.5837 19.1273C30.0481 18.1683 32.8254 16.5802 34.7555 15.5988C36.6828 14.6202 39.5864 13.3564 41.2079 12.7888C42.8294 12.224 45.0989 11.5083 46.2576 11.2007C47.4134 10.8903 49.7503 10.3927 51.4475 10.0963C53.1448 9.79992 54.8168 9.54828 55.1646 9.5343ZM85.9481 67.3691C85.1794 67.8976 83.6673 69.0439 82.5872 69.9191C81.5071 70.7942 80.0568 72.1363 79.361 72.9024C78.6653 73.6713 77.7451 74.7254 77.3131 75.2454C76.8811 75.7683 76.1068 76.8251 75.5962 77.594C75.0856 78.3629 74.2609 79.7469 73.7671 80.6696L72.8694 82.3472C74.0953 80.8821 75.2091 79.5596 76.132 78.4664C77.0578 77.3704 78.8252 75.4244 80.0596 74.1382C81.2967 72.8493 83.5046 70.7635 84.9718 69.4997C86.439 68.2359 88.3831 66.6142 89.2921 65.8985C90.2038 65.1799 90.835 64.6011 90.6948 64.6123C90.5573 64.6207 89.7465 65.0289 88.8937 65.521C88.0437 66.0103 86.7167 66.8407 85.9481 67.3691Z" fill="#45D4A9"/>
<path d="M179.35 151V46H218.65C227.15 46 234.2 47.45 239.8 50.35C245.4 53.25 249.55 57.15 252.25 62.05C254.95 66.95 256.3 72.55 256.3 78.85C256.3 84.65 255 90 252.4 94.9C249.8 99.8 245.7 103.8 240.1 106.9C234.5 109.9 227.35 111.4 218.65 111.4H199.6V151H179.35ZM199.6 95.05H217.45C223.95 95.05 228.6 93.6 231.4 90.7C234.3 87.7 235.75 83.75 235.75 78.85C235.75 73.65 234.3 69.65 231.4 66.85C228.6 63.95 223.95 62.5 217.45 62.5H199.6V95.05ZM244.599 151L282.999 46H305.949L344.199 151H322.749L294.399 69.1L265.899 151H244.599ZM261.549 127.15L266.949 111.4H320.349L325.599 127.15H261.549ZM348.996 151V46H369.246L417.546 118.45V46H437.796V151H417.546L369.246 78.7V151H348.996ZM449.274 151V46H484.374C496.574 46 506.624 48.2 514.524 52.6C522.524 56.9 528.424 63 532.224 70.9C536.124 78.7 538.074 87.9 538.074 98.5C538.074 109.1 536.124 118.35 532.224 126.25C528.424 134.05 522.574 140.15 514.674 144.55C506.774 148.85 496.674 151 484.374 151H449.274ZM469.524 133.6H483.324C491.924 133.6 498.674 132.2 503.574 129.4C508.574 126.6 512.124 122.6 514.224 117.4C516.324 112.1 517.374 105.8 517.374 98.5C517.374 91.1 516.324 84.8 514.224 79.6C512.124 74.3 508.574 70.25 503.574 67.45C498.674 64.65 491.924 63.25 483.324 63.25H469.524V133.6ZM594.779 152.8C584.579 152.8 575.579 150.5 567.779 145.9C559.979 141.3 553.879 134.95 549.479 126.85C545.079 118.65 542.879 109.2 542.879 98.5C542.879 87.8 545.079 78.4 549.479 70.3C553.879 62.1 559.979 55.7 567.779 51.1C575.579 46.5 584.579 44.2 594.779 44.2C605.079 44.2 614.129 46.5 621.929 51.1C629.729 55.7 635.779 62.1 640.079 70.3C644.479 78.4 646.679 87.8 646.679 98.5C646.679 109.2 644.479 118.65 640.079 126.85C635.779 134.95 629.729 141.3 621.929 145.9C614.129 150.5 605.079 152.8 594.779 152.8ZM594.779 134.65C601.179 134.65 606.679 133.2 611.279 130.3C615.979 127.3 619.629 123.1 622.229 117.7C624.829 112.3 626.129 105.9 626.129 98.5C626.129 91 624.829 84.6 622.229 79.3C619.629 73.9 615.979 69.75 611.279 66.85C606.679 63.95 601.179 62.5 594.779 62.5C588.479 62.5 582.979 63.95 578.279 66.85C573.579 69.75 569.929 73.9 567.329 79.3C564.729 84.6 563.429 91 563.429 98.5C563.429 105.9 564.729 112.3 567.329 117.7C569.929 123.1 573.579 127.3 578.279 130.3C582.979 133.2 588.479 134.65 594.779 134.65ZM654.955 151V46H694.105C702.605 46 709.605 47.45 715.105 50.35C720.605 53.25 724.705 57.15 727.405 62.05C730.105 66.85 731.455 72.2 731.455 78.1C731.455 83.7 730.155 88.95 727.555 93.85C724.955 98.65 720.855 102.55 715.255 105.55C709.755 108.45 702.655 109.9 693.955 109.9H675.205V151H654.955ZM709.405 151L687.805 104.8H709.705L732.505 151H709.405ZM675.205 95.2H692.905C699.005 95.2 703.505 93.7 706.405 90.7C709.305 87.7 710.755 83.75 710.755 78.85C710.755 73.95 709.305 70.1 706.405 67.3C703.605 64.4 699.105 62.95 692.905 62.95H675.205V95.2ZM733.534 151L771.934 46H794.884L833.134 151H811.684L783.334 69.1L754.834 151H733.534ZM750.484 127.15L755.884 111.4H809.284L814.534 127.15H750.484Z" fill="#232D33"/>
</svg>
